<svg width="49" height="32" viewBox="0 0 49 32" fill="none" xmlns="http://www.w3.org/2000/svg">
<path d="M0 16C0 7.16344 7.16344 0 16 0H33C41.8366 0 49 7.16344 49 16V16C49 24.8366 41.8366 32 33 32H16C7.16345 32 0 24.8366 0 16V16Z" fill="white"/>
<path d="M31.6188 19.08L34.1886 8.53858H37V6.88162H32.9602L32.3543 9.36657L16 9.35431L17.7387 19.0799H31.6188V19.08ZM31.9505 11.0232L30.3903 17.423H19.0516L17.9056 11.0127L31.9505 11.0232Z" fill="black"/>
<path d="M29.4537 25.1184C30.8483 25.1184 31.983 23.9297 31.983 22.4686C31.983 21.0076 30.8483 19.8189 29.4537 19.8189H19.9243C18.5296 19.8189 17.395 21.0076 17.395 22.4686C17.395 23.9297 18.5296 25.1184 19.9243 25.1184C21.319 25.1184 22.4536 23.9297 22.4536 22.4686C22.4536 22.1177 22.388 21.7826 22.2692 21.4759H27.1088C26.99 21.7826 26.9244 22.1177 26.9244 22.4686C26.9244 23.9297 28.059 25.1184 29.4537 25.1184ZM20.8719 22.4686C20.8719 23.0161 20.4468 23.4614 19.9243 23.4614C19.4017 23.4614 18.9766 23.0161 18.9766 22.4686C18.9766 21.9212 19.4017 21.4759 19.9243 21.4759C20.4468 21.4759 20.8719 21.9212 20.8719 22.4686ZM30.4014 22.4686C30.4014 23.0161 29.9763 23.4614 29.4537 23.4614C28.9312 23.4614 28.5061 23.0161 28.5061 22.4686C28.5061 21.9212 28.9312 21.4759 29.4537 21.4759C29.9763 21.4759 30.4014 21.9212 30.4014 22.4686Z" fill="black"/>
</svg>
