<svg width="148" height="38" viewBox="0 0 148 38" fill="none" xmlns="http://www.w3.org/2000/svg">
<rect x="76" y="3" width="72" height="32" rx="5" fill="#FF9000"/>
<path d="M18.1973 10.0117L11.4023 30H6.78125L0 10.0117H4.2793L8.03906 21.9062C8.10286 22.1068 8.20768 22.485 8.35352 23.041C8.49935 23.5879 8.64518 24.1712 8.79102 24.791C8.94596 25.4017 9.05078 25.9076 9.10547 26.3086C9.16016 25.9076 9.25586 25.4017 9.39258 24.791C9.53841 24.1803 9.67969 23.6016 9.81641 23.0547C9.96224 22.4987 10.0671 22.1159 10.1309 21.9062L13.918 10.0117H18.1973ZM26.6602 14.4004C28.7109 14.4004 30.2832 14.847 31.377 15.7402C32.4707 16.6335 33.0176 17.9915 33.0176 19.8145V30H30.1055L29.2988 27.9219H29.1895C28.752 28.4688 28.3053 28.9154 27.8496 29.2617C27.3939 29.6081 26.8698 29.8633 26.2773 30.0273C25.6849 30.1914 24.9648 30.2734 24.1172 30.2734C23.2148 30.2734 22.4036 30.1003 21.6836 29.7539C20.9727 29.4076 20.4121 28.8789 20.002 28.168C19.5918 27.4479 19.3867 26.5365 19.3867 25.4336C19.3867 23.8112 19.9564 22.6172 21.0957 21.8516C22.235 21.0768 23.944 20.6484 26.2227 20.5664L28.875 20.4844V19.8145C28.875 19.0124 28.6654 18.4245 28.2461 18.0508C27.8268 17.6771 27.2435 17.4902 26.4961 17.4902C25.7578 17.4902 25.0332 17.5951 24.3223 17.8047C23.6113 18.0143 22.9004 18.2786 22.1895 18.5977L20.8086 15.7812C21.6198 15.3529 22.5267 15.0156 23.5293 14.7695C24.541 14.5234 25.5846 14.4004 26.6602 14.4004ZM28.875 22.918L27.2617 22.9727C25.9128 23.0091 24.974 23.2507 24.4453 23.6973C23.9258 24.1439 23.666 24.7318 23.666 25.4609C23.666 26.099 23.8529 26.5547 24.2266 26.8281C24.6003 27.0924 25.0879 27.2246 25.6895 27.2246C26.5827 27.2246 27.3346 26.9603 27.9453 26.4316C28.5651 25.903 28.875 25.151 28.875 24.1758V22.918ZM45.8281 14.4277C47.5508 14.4277 48.9408 15.0977 49.998 16.4375C51.0645 17.7773 51.5977 19.7415 51.5977 22.3301C51.5977 24.0618 51.347 25.5202 50.8457 26.7051C50.3444 27.8809 49.6517 28.7695 48.7676 29.3711C47.8835 29.9727 46.8672 30.2734 45.7188 30.2734C44.9805 30.2734 44.347 30.1823 43.8184 30C43.2897 29.8086 42.8385 29.5671 42.4648 29.2754C42.0911 28.9746 41.7676 28.6556 41.4941 28.3184H41.2754C41.3483 28.6829 41.403 29.0566 41.4395 29.4395C41.4759 29.8223 41.4941 30.196 41.4941 30.5605V36.7266H37.3242V14.7148H40.7148L41.3027 16.6973H41.4941C41.7676 16.2871 42.1003 15.9089 42.4922 15.5625C42.8841 15.2161 43.3535 14.9427 43.9004 14.7422C44.4564 14.5326 45.099 14.4277 45.8281 14.4277ZM44.4883 17.7637C43.7591 17.7637 43.1803 17.9141 42.752 18.2148C42.3236 18.5156 42.0091 18.9668 41.8086 19.5684C41.6172 20.1699 41.5124 20.931 41.4941 21.8516V22.3027C41.4941 23.2871 41.5853 24.1211 41.7676 24.8047C41.959 25.4883 42.2734 26.0078 42.7109 26.3633C43.1576 26.7188 43.7682 26.8965 44.543 26.8965C45.181 26.8965 45.7051 26.7188 46.1152 26.3633C46.5254 26.0078 46.8307 25.4883 47.0312 24.8047C47.2409 24.112 47.3457 23.2689 47.3457 22.2754C47.3457 20.7806 47.1133 19.6549 46.6484 18.8984C46.1836 18.1419 45.4635 17.7637 44.4883 17.7637ZM61.3457 14.4277C62.7585 14.4277 63.9753 14.7012 64.9961 15.248C66.0169 15.7858 66.8053 16.5697 67.3613 17.5996C67.9173 18.6296 68.1953 19.8874 68.1953 21.373V23.3965H58.3379C58.3835 24.5723 58.7344 25.4974 59.3906 26.1719C60.056 26.8372 60.9766 27.1699 62.1523 27.1699C63.1276 27.1699 64.0208 27.0697 64.832 26.8691C65.6432 26.6686 66.4772 26.3678 67.334 25.9668V29.1934C66.5775 29.5671 65.7845 29.8405 64.9551 30.0137C64.1348 30.1868 63.1367 30.2734 61.9609 30.2734C60.4297 30.2734 59.0716 29.9909 57.8867 29.4258C56.7109 28.8607 55.7858 27.9993 55.1113 26.8418C54.446 25.6842 54.1133 24.2259 54.1133 22.4668C54.1133 20.6803 54.4141 19.1947 55.0156 18.0098C55.6263 16.8158 56.474 15.9225 57.5586 15.3301C58.6432 14.7285 59.9056 14.4277 61.3457 14.4277ZM61.373 17.3945C60.5618 17.3945 59.8874 17.6543 59.3496 18.1738C58.821 18.6934 58.5156 19.5091 58.4336 20.6211H64.2852C64.276 20.0013 64.1621 19.4499 63.9434 18.9668C63.7337 18.4837 63.4147 18.1009 62.9863 17.8184C62.5671 17.5358 62.0293 17.3945 61.373 17.3945Z" fill="white"/>
<path d="M102.84 30H98.6152V21.373H90.6992V30H86.4609V10.0117H90.6992V17.8457H98.6152V10.0117H102.84V30ZM121.598 14.7148V30H118.398L117.838 28.0449H117.619C117.291 28.5645 116.881 28.9883 116.389 29.3164C115.896 29.6445 115.354 29.8861 114.762 30.041C114.169 30.196 113.554 30.2734 112.916 30.2734C111.822 30.2734 110.87 30.082 110.059 29.6992C109.247 29.3073 108.614 28.7012 108.158 27.8809C107.712 27.0605 107.488 25.9941 107.488 24.6816V14.7148H111.658V23.6426C111.658 24.7363 111.854 25.5612 112.246 26.1172C112.638 26.6732 113.262 26.9512 114.119 26.9512C114.967 26.9512 115.632 26.7598 116.115 26.377C116.598 25.985 116.936 25.4154 117.127 24.668C117.327 23.9115 117.428 22.9909 117.428 21.9062V14.7148H121.598ZM130.143 8.72656V13.6758C130.143 14.25 130.124 14.8197 130.088 15.3848C130.061 15.9499 130.024 16.3874 129.979 16.6973H130.143C130.544 16.0684 131.09 15.5352 131.783 15.0977C132.476 14.651 133.374 14.4277 134.477 14.4277C136.19 14.4277 137.58 15.0977 138.646 16.4375C139.713 17.7773 140.246 19.7415 140.246 22.3301C140.246 24.071 140 25.5339 139.508 26.7188C139.016 27.8945 138.327 28.7832 137.443 29.3848C136.559 29.9772 135.534 30.2734 134.367 30.2734C133.246 30.2734 132.362 30.0729 131.715 29.6719C131.068 29.2708 130.544 28.8197 130.143 28.3184H129.855L129.158 30H125.973V8.72656H130.143ZM133.137 17.7637C132.408 17.7637 131.829 17.9141 131.4 18.2148C130.972 18.5156 130.658 18.9668 130.457 19.5684C130.266 20.1699 130.161 20.931 130.143 21.8516V22.3027C130.143 23.7884 130.361 24.9277 130.799 25.7207C131.236 26.5046 132.034 26.8965 133.191 26.8965C134.048 26.8965 134.727 26.5 135.229 25.707C135.739 24.9141 135.994 23.7702 135.994 22.2754C135.994 20.7806 135.739 19.6549 135.229 18.8984C134.718 18.1419 134.021 17.7637 133.137 17.7637Z" fill="black"/>
</svg>
