<svg width="17" height="17" viewBox="0 0 17 17" fill="none" xmlns="http://www.w3.org/2000/svg">
<path d="M16.7857 15.7883L11.9082 10.9033C12.8698 9.74915 13.4481 8.27423 13.4481 6.66332C13.4481 2.98821 10.4345 0 6.72753 0C3.0206 0 0 2.99169 0 6.6668C0 10.3419 3.01363 13.3301 6.72057 13.3301C8.29532 13.3301 9.74465 12.7897 10.8944 11.8866L15.7893 16.7856C16.075 17.0715 16.5001 17.0715 16.7857 16.7856C17.0714 16.4996 17.0714 16.0742 16.7857 15.7883ZM1.42843 6.6668C1.42843 3.77971 3.80449 1.43308 6.72057 1.43308C9.63664 1.43308 12.0127 3.77971 12.0127 6.6668C12.0127 9.55389 9.63664 11.9005 6.72057 11.9005C3.80449 11.9005 1.42843 9.5504 1.42843 6.6668Z" fill="#929292"/>
</svg>
